<svg width="107" height="48" viewBox="0 0 107 48" fill="none" xmlns="http://www.w3.org/2000/svg">
<path d="M5.8517 15.6312C7.3385 17.2188 9.5813 18.3024 12.6809 18.3024C17.2169 18.3024 19.1825 15.9084 19.1825 13.1112C19.1825 9.4572 15.8813 8.6004 13.1093 7.8948C11.1185 7.3908 9.4049 6.9624 9.4049 5.652C9.4049 4.392 10.5137 3.5604 12.2525 3.5604C14.0165 3.5604 15.8057 4.1652 17.1161 5.4756L18.8045 3.2832C17.2421 1.7712 15.1253 0.9396 12.5045 0.9396C8.8253 0.9396 6.3809 3.0816 6.3809 5.8536C6.3809 9.4068 9.6065 10.2132 12.3533 10.8936C14.3945 11.4228 16.1837 11.8764 16.1837 13.3884C16.1837 14.4972 15.2261 15.6816 12.8069 15.6816C10.4633 15.6816 8.6489 14.598 7.4897 13.3632L5.8517 15.6312ZM19.8062 11.9016C19.8062 15.606 22.4018 18.3024 26.1062 18.3024C28.475 18.3024 29.9114 17.2944 30.7682 16.1352L29.0294 14.5224C28.349 15.4548 27.4166 15.9588 26.2322 15.9588C24.0146 15.9588 22.553 14.2704 22.553 11.9016C22.553 9.5328 24.0146 7.8696 26.2322 7.8696C27.4166 7.8696 28.349 8.3484 29.0294 9.306L30.7682 7.6932C29.9114 6.534 28.475 5.526 26.1062 5.526C22.4018 5.526 19.8062 8.2224 19.8062 11.9016ZM40.0688 18H42.7148V9.3816C42.7148 6.8868 41.4044 5.526 38.7836 5.526C36.8684 5.526 35.2808 6.534 34.4744 7.4916V1.1916H31.8284V18H34.4744V9.5076C35.1044 8.676 36.2636 7.8696 37.5992 7.8696C39.086 7.8696 40.0688 8.4492 40.0688 10.3392V18ZM57.8256 18H60.4716V1.1916H57.8256V18ZM66.2981 18.3024C67.5329 18.3024 68.3141 17.9748 68.7929 17.5212L68.1629 15.5304C67.9613 15.7572 67.4825 15.9588 66.9785 15.9588C66.2225 15.9588 65.8193 15.354 65.8193 14.5224V8.1468H68.2889V5.8284H65.8193V2.502H63.1733V5.8284H61.1573V8.1468H63.1733V15.1776C63.1733 17.1936 64.2569 18.3024 66.2981 18.3024ZM32.2682 37H35.2166V29.7424H43.6082V27.1468H35.2166V22.7872H43.7846V20.1916H32.2682V37ZM57.8915 39.394L57.4883 41.7628C57.8663 41.8636 58.5971 41.9392 58.9751 41.9392C60.8651 41.914 62.3267 41.2588 63.1583 39.1924L69.0299 24.8284H66.1823L62.6291 33.9508L59.0759 24.8284H56.2535L61.2431 37.1512L60.6383 38.5372C60.2855 39.3436 59.7311 39.5956 58.8995 39.5956C58.5971 39.5956 58.1687 39.52 57.8915 39.394Z" fill="#3C3C3C"/>
<path d="M44.5024 11.95C44.5024 15.675 47.0274 18.3 50.5524 18.3C52.5524 18.3 54.0774 17.6 55.2774 16.35L54.6024 15.5C53.5774 16.6 52.1774 17.175 50.6524 17.175C47.8024 17.175 46.0524 15 45.9274 12.375H56.0274V12.025C56.0274 8.55 54.0024 5.625 50.3274 5.625C46.9774 5.625 44.5024 8.45 44.5024 11.95ZM50.3024 6.75C53.3274 6.75 54.6774 9.3 54.7024 11.35H45.9274C46.0274 9.25 47.4524 6.75 50.3024 6.75ZM74.8428 18.3C78.4178 18.3 80.6678 15.475 80.6678 11.95C80.6678 8.425 78.4178 5.625 74.8428 5.625C71.3178 5.625 69.0428 8.425 69.0428 11.95C69.0428 15.475 71.3178 18.3 74.8428 18.3ZM74.8428 17.125C72.0428 17.125 70.4428 14.65 70.4428 11.95C70.4428 9.275 72.0428 6.8 74.8428 6.8C77.6928 6.8 79.2678 9.275 79.2678 11.95C79.2678 14.65 77.6928 17.125 74.8428 17.125ZM44.6944 30.95C44.6944 34.675 47.2194 37.3 50.7444 37.3C52.7444 37.3 54.2694 36.6 55.4694 35.35L54.7944 34.5C53.7694 35.6 52.3694 36.175 50.8444 36.175C47.9944 36.175 46.2444 34 46.1194 31.375H56.2194V31.025C56.2194 27.55 54.1944 24.625 50.5194 24.625C47.1694 24.625 44.6944 27.45 44.6944 30.95ZM50.4944 25.75C53.5194 25.75 54.8694 28.3 54.8944 30.35H46.1194C46.2194 28.25 47.6444 25.75 50.4944 25.75ZM74.8428 37.3C78.4178 37.3 80.6678 34.475 80.6678 30.95C80.6678 27.425 78.4178 24.625 74.8428 24.625C71.3178 24.625 69.0428 27.425 69.0428 30.95C69.0428 34.475 71.3178 37.3 74.8428 37.3ZM74.8428 36.125C72.0428 36.125 70.4428 33.65 70.4428 30.95C70.4428 28.275 72.0428 25.8 74.8428 25.8C77.6928 25.8 79.2678 28.275 79.2678 30.95C79.2678 33.65 77.6928 36.125 74.8428 36.125Z" fill="#3C3C3C"/>
<path opacity="0.4" fill-rule="evenodd" clip-rule="evenodd" d="M100.909 10.1427C100.909 12.4284 96.5455 15.857 96.5455 20.4285C96.5455 22.1428 99.8182 27.2856 102 30.1429C100.909 29.5715 99.8182 29 98.1818 29C94.9091 29 93.8182 31.8572 93.8182 33.5714C93.8182 34.7143 94.9091 35.8571 95.4545 37C92.1818 34.7143 90 32.4286 90 30.1429C90 24.4286 93.7255 26.4285 96.4528 25.2857C93.7255 22.4286 91.0909 18.1428 91.0909 16.4285C91.0909 15.2857 94.3636 11.2857 95.4545 8.42855V6.71427C95.4545 4.99999 94.3636 2.71428 93.8182 1C96 3.85713 100.909 9.00009 100.909 10.1429V10.1427Z" fill="#6E91FF"/>
<path opacity="0.5" fill-rule="evenodd" clip-rule="evenodd" d="M102.063 10.1427C102.063 12.4284 97.6993 15.857 97.6993 20.4285C97.6993 22.1428 100.972 27.2856 103.154 30.1429C102.063 29.5715 100.972 29 99.3357 29C96.0629 29 94.972 31.8572 94.972 33.5714C94.972 34.7143 96.0629 35.8571 96.6084 37C93.3357 34.7143 91.1538 32.4286 91.1538 30.1429C91.1538 24.4286 94.8794 26.4285 97.6066 25.2857C94.8794 22.4286 92.2447 18.1428 92.2447 16.4285C92.2447 15.2857 95.5175 11.2857 96.6084 8.42855V6.71427C96.6084 4.99999 95.5175 2.71428 94.972 1C97.1538 3.85713 102.063 9.00009 102.063 10.1429V10.1427Z" fill="#60D9FF"/>
<path opacity="0.6" fill-rule="evenodd" clip-rule="evenodd" d="M103.217 10.1427C103.217 12.4284 98.8531 15.857 98.8531 20.4285C98.8531 22.1428 102.126 27.2856 104.308 30.1429C103.217 29.5715 102.126 29 100.49 29C97.2168 29 96.1259 31.8572 96.1259 33.5714C96.1259 34.7143 97.2168 35.8571 97.7622 37C94.4895 34.7143 92.3077 32.4286 92.3077 30.1429C92.3077 24.4286 96.0332 26.4285 98.7605 25.2857C96.0332 22.4286 93.3986 18.1428 93.3986 16.4285C93.3986 15.2857 96.6713 11.2857 97.7622 8.42855V6.71427C97.7622 4.99999 96.6713 2.71428 96.1259 1C98.3077 3.85713 103.217 9.00009 103.217 10.1429V10.1427Z" fill="#54FFC9"/>
<path opacity="0.7" fill-rule="evenodd" clip-rule="evenodd" d="M104.371 10.1427C104.371 12.4284 100.007 15.857 100.007 20.4285C100.007 22.1428 103.28 27.2856 105.462 30.1429C104.371 29.5715 103.28 29 101.643 29C98.3706 29 97.2797 31.8572 97.2797 33.5714C97.2797 34.7143 98.3706 35.8571 98.9161 37C95.6434 34.7143 93.4615 32.4286 93.4615 30.1429C93.4615 24.4286 97.187 26.4285 99.9143 25.2857C97.187 22.4286 94.5524 18.1428 94.5524 16.4285C94.5524 15.2857 97.8252 11.2857 98.9161 8.42855V6.71427C98.9161 4.99999 97.8252 2.71428 97.2797 1C99.4615 3.85713 104.371 9.00009 104.371 10.1429V10.1427Z" fill="#FFCD47"/>
<path fill-rule="evenodd" clip-rule="evenodd" d="M105.524 10.1427C105.524 12.4284 101.161 15.857 101.161 20.4285C101.161 22.1428 104.434 27.2856 106.615 30.1429C105.524 29.5715 104.434 29 102.797 29C99.5245 29 98.4336 31.8572 98.4336 33.5714C98.4336 34.7143 99.5245 35.8571 100.07 37C96.7972 34.7143 94.6154 32.4286 94.6154 30.1429C94.6154 24.4286 98.3409 26.4285 101.068 25.2857C98.3409 22.4286 95.7063 18.1428 95.7063 16.4285C95.7063 15.2857 98.979 11.2857 100.07 8.42855V6.71427C100.07 4.99999 98.979 2.71428 98.4336 1C100.615 3.85713 105.524 9.00009 105.524 10.1429V10.1427Z" fill="#FF967A"/>
</svg>
