<svg width="17" height="36" viewBox="0 0 17 36" fill="none" xmlns="http://www.w3.org/2000/svg">
<path opacity="0.4" fill-rule="evenodd" clip-rule="evenodd" d="M10.9091 9.14272C10.9091 11.4284 6.54545 14.857 6.54545 19.4285C6.54545 21.1428 9.81818 26.2856 12 29.1429C10.9091 28.5715 9.81818 28 8.18182 28C4.90909 28 3.81818 30.8572 3.81818 32.5714C3.81818 33.7143 4.9091 34.8571 5.45455 36C2.18182 33.7143 0 31.4286 0 29.1429C0 23.4286 3.72551 25.4285 6.45279 24.2857C3.72551 21.4286 1.09091 17.1428 1.09091 15.4285C1.09091 14.2857 4.36364 10.2857 5.45455 7.42855V5.71427C5.45455 3.99999 4.36362 1.71428 3.81818 0C6 2.85713 10.9091 8.00009 10.9091 9.14295V9.14272Z" fill="#6E91FF"/>
<path opacity="0.5" fill-rule="evenodd" clip-rule="evenodd" d="M12.0629 9.14272C12.0629 11.4284 7.69929 14.857 7.69929 19.4285C7.69929 21.1428 10.972 26.2856 13.1538 29.1429C12.0629 28.5715 10.972 28 9.33566 28C6.06293 28 4.97202 30.8572 4.97202 32.5714C4.97202 33.7143 6.06294 34.8571 6.60838 36C3.33566 33.7143 1.15384 31.4286 1.15384 29.1429C1.15384 23.4286 4.87935 25.4285 7.60662 24.2857C4.87935 21.4286 2.24475 17.1428 2.24475 15.4285C2.24475 14.2857 5.51748 10.2857 6.60838 7.42855V5.71427C6.60838 3.99999 5.51746 1.71428 4.97202 0C7.15384 2.85713 12.0629 8.00009 12.0629 9.14295V9.14272Z" fill="#60D9FF"/>
<path opacity="0.6" fill-rule="evenodd" clip-rule="evenodd" d="M13.2168 9.14272C13.2168 11.4284 8.85315 14.857 8.85315 19.4285C8.85315 21.1428 12.1259 26.2856 14.3077 29.1429C13.2168 28.5715 12.1259 28 10.4895 28C7.21679 28 6.12587 30.8572 6.12587 32.5714C6.12587 33.7143 7.2168 34.8571 7.76224 36C4.48951 33.7143 2.30769 31.4286 2.30769 29.1429C2.30769 23.4286 6.03321 25.4285 8.76048 24.2857C6.03321 21.4286 3.3986 17.1428 3.3986 15.4285C3.3986 14.2857 6.67133 10.2857 7.76224 7.42855V5.71427C7.76224 3.99999 6.67132 1.71428 6.12587 0C8.30769 2.85713 13.2168 8.00009 13.2168 9.14295V9.14272Z" fill="#54FFC9"/>
<path opacity="0.7" fill-rule="evenodd" clip-rule="evenodd" d="M14.3706 9.14272C14.3706 11.4284 10.007 14.857 10.007 19.4285C10.007 21.1428 13.2797 26.2856 15.4615 29.1429C14.3706 28.5715 13.2797 28 11.6434 28C8.37062 28 7.27971 30.8572 7.27971 32.5714C7.27971 33.7143 8.37063 34.8571 8.91608 36C5.64335 33.7143 3.46153 31.4286 3.46153 29.1429C3.46153 23.4286 7.18705 25.4285 9.91432 24.2857C7.18705 21.4286 4.55244 17.1428 4.55244 15.4285C4.55244 14.2857 7.82517 10.2857 8.91608 7.42855V5.71427C8.91608 3.99999 7.82516 1.71428 7.27971 0C9.46153 2.85713 14.3706 8.00009 14.3706 9.14295V9.14272Z" fill="#FFCD47"/>
<path fill-rule="evenodd" clip-rule="evenodd" d="M15.5245 9.14272C15.5245 11.4284 11.1608 14.857 11.1608 19.4285C11.1608 21.1428 14.4336 26.2856 16.6154 29.1429C15.5245 28.5715 14.4336 28 12.7972 28C9.52448 28 8.43357 30.8572 8.43357 32.5714C8.43357 33.7143 9.52449 34.8571 10.0699 36C6.7972 33.7143 4.61539 31.4286 4.61539 29.1429C4.61539 23.4286 8.3409 25.4285 11.0682 24.2857C8.3409 21.4286 5.7063 17.1428 5.7063 15.4285C5.7063 14.2857 8.97902 10.2857 10.0699 7.42855V5.71427C10.0699 3.99999 8.97901 1.71428 8.43357 0C10.6154 2.85713 15.5245 8.00009 15.5245 9.14295V9.14272Z" fill="#FF967A"/>
</svg>
